# xmcd
#
# Track frame offsets:
#	150
#	13801
#	26961
#	39429
#	51686
#	62249
#	73193
#	84221
#	94783
#	107378
#	120488
#	131170
#	140580
#	151736
#	164662
#	176148
#	187381
#	198098
#	207043
#	216494
#	226418
#	236824
#	245839
#	256726
#
# Disc length: 3538 seconds
#
# Revision: 0
# Processed by: cddbd v1.4PL0 Copyright (c) Steve Scherf et al.
# Submitted via: dBpowerAMP V4.0
#
DISCID=6b0dd018
DTITLE=Webb Pierce - Wondering Boy
DYEAR=2000
DGENRE=Country
TTITLE0=Wondering
TTITLE1=That Heart Belongs To Me
TTITLE2=Back Street Affair 
TTITLE3=I'll Go On Alone
TTITLE4=It's Been So Long
TTITLE5=There Stands The Glass
TTITLE6=I'm Walking The Dog
TTITLE7=Slowly
TTITLE8=Even Tho
TTITLE9=The Sparkling Brown Eyes  with Wilburn Brothers
TTITLE10=More And More
TTITLE11=In The Jailhouse Now
TTITLE12=I Don't Care
TTITLE13=Love, Love, Love
TTITLE14=Why Baby Why
TTITLE15=Yes I Know Why I Want To Cry
TTITLE16=Teenage Boogie
TTITLE17=I'm Tired
TTITLE18=Honky Tonk Song
TTITLE19=Bye Bye Love
TTITLE20=Holiday For Love
TTITLE21=The New Raunchy
TTITLE22=Cryin' Over You
TTITLE23=I Ain't Never
EXTD=1950's country
EXTT0=
EXTT1=
EXTT2=
EXTT3=
EXTT4=
EXTT5=
EXTT6=
EXTT7=
EXTT8=
EXTT9=
EXTT10=
EXTT11=
EXTT12=
EXTT13=
EXTT14=
EXTT15=
EXTT16=
EXTT17=
EXTT18=
EXTT19=
EXTT20=
EXTT21=
EXTT22=
EXTT23=
PLAYORDER=
